<svg width="32" height="32" viewBox="0 0 32 32" fill="none" xmlns="http://www.w3.org/2000/svg">
<rect width="32" height="32" rx="6.4" fill="#2AABEE"/>
<path fill-rule="evenodd" clip-rule="evenodd" d="M7.24236 14.8312C11.9067 12.799 15.017 11.4593 16.5732 10.812C21.0166 8.96384 21.9399 8.64279 22.5417 8.63219C22.674 8.62986 22.97 8.66266 23.1617 8.81821C23.3235 8.94956 23.3681 9.12699 23.3894 9.25151C23.4107 9.37604 23.4372 9.65972 23.4161 9.88138C23.1753 12.4114 22.1335 18.5509 21.6034 21.3846C21.3791 22.5836 20.9375 22.9856 20.5099 23.0249C19.5808 23.1104 18.8752 22.4109 17.9753 21.821C16.5671 20.8979 15.7716 20.3233 14.4047 19.4225C12.825 18.3815 13.849 17.8093 14.7493 16.8743C14.9849 16.6296 19.0787 12.9059 19.158 12.5681C19.1679 12.5258 19.1771 12.3684 19.0835 12.2852C18.99 12.2021 18.8519 12.2305 18.7522 12.2531C18.611 12.2852 16.3614 13.7721 12.0034 16.7139C11.3648 17.1524 10.7864 17.366 10.2682 17.3548C9.69694 17.3425 8.59802 17.0318 7.78109 16.7662C6.77909 16.4405 5.98272 16.2683 6.05206 15.7152C6.08818 15.427 6.48495 15.1324 7.24236 14.8312Z" fill="white"/>
</svg>
