<svg width="32" height="32" viewBox="0 0 32 32" fill="none" xmlns="http://www.w3.org/2000/svg">
<g clip-path="url(#clip0_958_5996)">
<path d="M13.4206 18.5472L10.6128 19.2995L12.9195 13.5691C12.9702 13.4438 12.9072 13.2959 12.7815 13.2461C12.734 13.2259 12.6769 13.2224 12.6256 13.2361L7.43989 14.6256C6.98374 14.7478 6.71219 15.2229 6.83483 15.6806C6.95746 16.1383 7.43125 16.4136 7.88631 16.2917L10.2162 15.6674L7.89862 21.4055C7.84362 21.532 7.90544 21.6754 8.03226 21.7296C8.08532 21.7531 8.14131 21.7569 8.19252 21.7384L13.8639 20.2188C14.3141 20.0746 14.5603 19.5876 14.4146 19.1313C14.2781 18.7092 13.8486 18.4596 13.4172 18.5516L13.416 18.5473L13.4206 18.5472ZM30.1602 8.53773C29.7041 8.65995 29.4325 9.13502 29.5552 9.5927L30.3048 12.3903L24.8684 10.0157C24.7467 9.95887 24.5974 10.013 24.5438 10.1403C24.5207 10.1935 24.517 10.2498 24.5323 10.3069L26.0725 16.0547C26.1954 16.5135 26.6689 16.7877 27.1239 16.6658C27.579 16.5439 27.8528 16.0729 27.729 15.6108L26.9794 12.8132L32.417 15.1922C32.543 15.2479 32.6911 15.1894 32.7447 15.0621C32.7679 15.0088 32.7715 14.9526 32.7574 14.8999L31.2161 9.14765C31.089 8.68647 30.6207 8.41433 30.1602 8.53773ZM19.7332 17.024C17.8365 17.5322 16.1531 16.9069 15.9123 16.008C15.6714 15.1091 16.821 13.7247 18.7133 13.2177C20.6099 12.7095 22.2933 13.3348 22.5341 14.2337C22.775 15.1326 21.6331 16.5149 19.7332 17.024ZM18.2666 11.5505C15.5242 12.2853 13.7259 14.4788 14.2546 16.4522C14.7834 18.4255 17.4375 19.426 20.1799 18.6911C22.9222 17.9563 24.7205 15.7629 24.1918 13.7895C23.663 11.8161 21.0089 10.8157 18.2666 11.5505ZM3.42196 21.3992C2.37652 21.6794 1.29741 21.0569 1.01538 20.0043C0.733357 18.9518 1.35 17.8702 2.39653 17.5897C3.44307 17.3093 4.52108 17.9321 4.80311 18.9847L4.80429 18.9891C5.08514 20.0372 4.46732 21.1144 3.42196 21.3992ZM1.95418 15.9214C-0.0068373 16.4469 -1.16784 18.4695 -0.643437 20.4441C-0.114966 22.4164 1.90103 23.5889 3.86431 23.0676C5.82533 22.5421 6.98634 20.5195 6.46193 18.5449L6.46076 18.5405C5.92792 16.5694 3.91193 15.3968 1.95418 15.9214Z" fill="white"/>
</g>
<defs>
<clipPath id="clip0_958_5996">
<rect width="32" height="32" fill="white"/>
</clipPath>
</defs>
</svg>
