<svg width="130" height="62" viewBox="0 0 130 62" fill="none" xmlns="http://www.w3.org/2000/svg">
<path d="M28.5044 30.1458V15.001C28.5044 13.8964 27.609 13.001 26.5044 13.001H3.00024C1.89567 13.001 1.00024 13.8964 1.00024 15.001V51.0056C1.00024 52.1101 1.89568 53.0056 3.00024 53.0056H25.8079" stroke="white" stroke-width="2"/>
<circle cx="14.7524" cy="49.2912" r="0.952381" fill="white" stroke="white" stroke-width="0.87105"/>
<path d="M12.8646 15.8589H16.6397" stroke="white"/>
<path d="M37.1329 31.2891L49.2094 31.2891M49.2094 31.2891L45.4459 35.2896M49.2094 31.2891L45.4459 27.2886" stroke="white" stroke-width="2"/>
<path d="M73.8054 61.0069H91.0629H108.59M53.8514 45.0809V50.7595C53.8514 51.8641 54.7469 52.7595 55.8514 52.7595H84.3217M53.8514 45.0809V3C53.8514 1.89543 54.7469 1 55.8514 1H126.274C127.379 1 128.274 1.89543 128.274 3V45.0809M53.8514 45.0809H128.274M128.274 45.0809V50.7595C128.274 51.8641 127.379 52.7595 126.274 52.7595H98.0738M98.0738 52.7595C98.0738 52.7595 98.0738 61.0069 104.276 61.0069C104.276 61.0069 71.9179 61.0069 78.1198 61.0069C84.3217 61.0069 84.3217 52.7595 84.3217 52.7595M98.0738 52.7595H84.3217" stroke="white" stroke-width="2"/>
<path d="M59.501 4.41846H123.183C124.287 4.41846 125.183 5.31389 125.183 6.41846V39.8618C125.183 40.9664 124.287 41.8618 123.183 41.8618H59.501C58.3964 41.8618 57.501 40.9664 57.501 39.8618V6.41846C57.501 5.31389 58.3964 4.41846 59.501 4.41846Z" stroke="white"/>
<circle cx="90.7931" cy="48.7194" r="0.952381" fill="white" stroke="white" stroke-width="0.87105"/>
<path d="M30.2794 30.1465H21.8756C20.771 30.1465 19.8756 31.0419 19.8756 32.1465V51.0063C19.8756 52.1108 20.771 53.0063 21.8756 53.0063H30.2794C31.384 53.0063 32.2794 52.1108 32.2794 51.0062V32.1465C32.2794 31.0419 31.384 30.1465 30.2794 30.1465Z" stroke="white" stroke-width="2"/>
<path d="M25.2686 31.8604H27.4257" stroke="white"/>
</svg>
