<svg width="146" height="106" viewBox="0 0 146 106" fill="none" xmlns="http://www.w3.org/2000/svg">
<path d="M138.047 57.1064H115.279C114.048 57.1064 113.05 58.1071 113.05 59.3414V80.3358C113.05 81.5701 114.048 82.5707 115.279 82.5707H138.047C139.278 82.5707 140.275 81.5701 140.275 80.3358V59.3414C140.275 58.1071 139.278 57.1064 138.047 57.1064Z" stroke="white" stroke-miterlimit="10"/>
<path d="M20.9201 97.4814C20.8857 101.839 20.8599 104.669 20.8599 104.669H50.0468" stroke="white" stroke-width="2" stroke-miterlimit="10"/>
<path d="M108.412 97.9127C108.412 71.1368 108.412 4.08919 108.412 1H144.913V104.661H108.412V97.904V97.9127Z" stroke="white" stroke-width="2" stroke-miterlimit="10"/>
<path d="M108.412 21.8652H144.913" stroke="white" stroke-width="2" stroke-miterlimit="10"/>
<path d="M108.412 45.8623H144.913" stroke="white" stroke-width="2" stroke-miterlimit="10"/>
<path d="M108.412 87.0664H144.913" stroke="white" stroke-width="2" stroke-miterlimit="10"/>
<path d="M112.593 53.7065H140.567" stroke="white" stroke-miterlimit="10" stroke-linecap="round"/>
<path d="M89.1641 61.3604H97.4762" stroke="white" stroke-miterlimit="10" stroke-linecap="round"/>
<path d="M61.0781 61.3604H69.3988" stroke="white" stroke-miterlimit="10" stroke-linecap="round"/>
<path d="M122.472 90.9404H130.784" stroke="white" stroke-miterlimit="10" stroke-linecap="round"/>
<path d="M137.797 26.2402H115.528C114.16 26.2402 113.05 27.3529 113.05 28.7254V39.0026C113.05 40.3751 114.16 41.4877 115.528 41.4877H137.797C139.166 41.4877 140.275 40.3751 140.275 39.0026V28.7254C140.275 27.3529 139.166 26.2402 137.797 26.2402Z" stroke="white" stroke-miterlimit="10" stroke-linecap="round"/>
<path d="M133.978 26.2402V41.4877" stroke="white" stroke-miterlimit="10"/>
<path d="M121.931 51.3939C122.644 51.3939 123.222 50.8144 123.222 50.0995C123.222 49.3847 122.644 48.8052 121.931 48.8052C121.218 48.8052 120.64 49.3847 120.64 50.0995C120.64 50.8144 121.218 51.3939 121.931 51.3939Z" fill="white"/>
<path d="M118.238 51.3939C118.951 51.3939 119.529 50.8144 119.529 50.0995C119.529 49.3847 118.951 48.8052 118.238 48.8052C117.526 48.8052 116.948 49.3847 116.948 50.0995C116.948 50.8144 117.526 51.3939 118.238 51.3939Z" fill="white"/>
<path d="M135.087 51.3939C135.799 51.3939 136.377 50.8144 136.377 50.0995C136.377 49.3847 135.799 48.8052 135.087 48.8052C134.374 48.8052 133.796 49.3847 133.796 50.0995C133.796 50.8144 134.374 51.3939 135.087 51.3939Z" fill="white"/>
<path d="M131.378 51.3939C132.09 51.3939 132.668 50.8144 132.668 50.0995C132.668 49.3847 132.09 48.8052 131.378 48.8052C130.665 48.8052 130.087 49.3847 130.087 50.0995C130.087 50.8144 130.665 51.3939 131.378 51.3939Z" fill="white"/>
<path d="M136.429 38.9595H137.78" stroke="white" stroke-miterlimit="10" stroke-linecap="round"/>
<path d="M137.109 30.6324C137.717 30.6324 138.21 30.1379 138.21 29.5279C138.21 28.9179 137.717 28.4233 137.109 28.4233C136.5 28.4233 136.007 28.9179 136.007 29.5279C136.007 30.1379 136.5 30.6324 137.109 30.6324Z" fill="white"/>
<path d="M100.212 57.1147C97.4324 57.1147 66.6966 57.1147 53.5831 57.1147M50.0552 97.4468V104.669H108.421V57.1147H100.22" stroke="white" stroke-width="2" stroke-miterlimit="10"/>
<path d="M79.2334 57.8052V104.669" stroke="white" stroke-miterlimit="10"/>
<path d="M27.9332 49.9438H36.5981" stroke="white" stroke-miterlimit="10" stroke-linecap="round"/>
<path d="M27.9332 52.7827H34.5588" stroke="white" stroke-miterlimit="10" stroke-linecap="round"/>
<path d="M27.9332 55.6218H32.27" stroke="white" stroke-miterlimit="10" stroke-linecap="round"/>
<path d="M24.7743 46.6907H13.7776V59.686H24.7743V46.6907Z" stroke="white" stroke-miterlimit="10"/>
<path d="M27.9332 67.0122H36.5981" stroke="white" stroke-miterlimit="10" stroke-linecap="round"/>
<path d="M27.9332 69.8511H34.5588" stroke="white" stroke-miterlimit="10" stroke-linecap="round"/>
<path d="M27.9332 72.6899H32.27" stroke="white" stroke-miterlimit="10" stroke-linecap="round"/>
<path d="M24.7743 63.759H13.7776V76.7544H24.7743V63.759Z" stroke="white" stroke-miterlimit="10"/>
<path d="M50.0379 93.926V41.7808L40.5556 30.4854H1V93.926H50.0379Z" stroke="white" stroke-width="2" stroke-miterlimit="10" stroke-linecap="round"/>
<mask id="mask0_2951_8274" style="mask-type:luminance" maskUnits="userSpaceOnUse" x="3" y="33" width="45" height="59">
<path d="M39.0672 33.3589H3.85699V91.0612H47.1642V42.9457L39.0758 33.3589H39.0672ZM9.11444 85.7716V38.6744L36.6149 38.6226L42.0186 44.7837V85.8407L9.11444 85.7716Z" fill="white"/>
</mask>
<g mask="url(#mask0_2951_8274)">
<path d="M-5.80634 37.5869L9.20017 23.0642" stroke="white" stroke-miterlimit="10"/>
<path d="M-8.23318 46.8372L17.5636 21.8562" stroke="white" stroke-miterlimit="10"/>
<path d="M-8.74915 54.1979L24.7746 21.675" stroke="white" stroke-miterlimit="10"/>
<path d="M1.45544 92.226L53.832 41.4182" stroke="white" stroke-miterlimit="10"/>
<path d="M3.19485 97.481L53.9279 48.261" stroke="white" stroke-miterlimit="10"/>
<path d="M7.37598 100.286L54.9769 54.1116" stroke="white" stroke-miterlimit="10"/>
<path d="M13.2013 101.554L55.8202 60.2036" stroke="white" stroke-miterlimit="10"/>
<path d="M22.1755 99.6814L59.8209 63.1633" stroke="white" stroke-miterlimit="10"/>
<path d="M28.5954 100.26L62.1191 67.7368" stroke="white" stroke-miterlimit="10"/>
<path d="M31.3062 104.514L64.8299 71.991" stroke="white" stroke-miterlimit="10"/>
<path d="M34.343 108.431L67.8667 75.9084" stroke="white" stroke-miterlimit="10"/>
<path d="M37.3294 112.358L70.8532 79.8347" stroke="white" stroke-miterlimit="10"/>
<path d="M-7.33743 86.5826L47.8356 33.7471" stroke="white" stroke-miterlimit="10"/>
<path d="M-2.2182 88.55L50.1153 38.4326" stroke="white" stroke-miterlimit="10"/>
<path d="M-7.40634 59.9966L31.4092 22.072" stroke="white" stroke-miterlimit="10"/>
<path d="M-5.07535 64.3973L36.8121 23.7891" stroke="white" stroke-miterlimit="10"/>
<path d="M-5.85852 71.9479L40.641 27.0251" stroke="white" stroke-miterlimit="10"/>
<path d="M-7.7424 80.3783L42.9734 31.6501" stroke="white" stroke-miterlimit="10"/>
</g>
</svg>
