<svg width="40" height="40" viewBox="0 0 40 40" fill="none" xmlns="http://www.w3.org/2000/svg">
<g clip-path="url(#clip0_3002_2771)">
<rect width="40" height="40" fill="#065AFE"/>
<rect width="40" height="40" fill="#065AFE"/>
<path d="M16.7759 23.184L13.2661 24.1245L16.1495 16.9614C16.2128 16.8048 16.1341 16.62 15.977 16.5577C15.9176 16.5324 15.8463 16.528 15.7822 16.5452L9.29999 18.2821C8.7298 18.4349 8.39036 19.0287 8.54365 19.6008C8.69695 20.1729 9.28919 20.5171 9.85802 20.3647L12.7704 19.5843L9.87339 26.7569C9.80464 26.915 9.88192 27.0943 10.0404 27.1621C10.1068 27.1914 10.1768 27.1962 10.2408 27.1731L17.33 25.2736C17.8928 25.0934 18.2004 24.4845 18.0184 23.9142C17.8477 23.3865 17.3109 23.0745 16.7716 23.1896L16.7701 23.1841L16.7759 23.184ZM37.7004 10.6722C37.1302 10.825 36.7908 11.4188 36.9441 11.9909L37.8811 15.488L31.0856 12.5196C30.9335 12.4486 30.7469 12.5163 30.6799 12.6754C30.651 12.742 30.6464 12.8123 30.6655 12.8836L32.5907 20.0684C32.7444 20.6419 33.3362 20.9847 33.9051 20.8323C34.4739 20.6799 34.8162 20.0912 34.6614 19.5136L33.7244 16.0165L40.5214 18.9904C40.6789 19.0599 40.864 18.9868 40.931 18.8277C40.9599 18.7611 40.9645 18.6908 40.9468 18.6249L39.0202 11.4346C38.8614 10.8581 38.2761 10.518 37.7004 10.6722ZM24.6666 21.28C22.2958 21.9153 20.1916 21.1337 19.8905 20.0101C19.5894 18.8864 21.0264 17.156 23.3917 16.5222C25.7625 15.8869 27.8667 16.6685 28.1678 17.7922C28.4689 18.9158 27.0415 20.6437 24.6666 21.28ZM22.8333 14.4382C19.4053 15.3567 17.1575 18.0985 17.8184 20.5653C18.4794 23.032 21.797 24.2825 25.225 23.364C28.6529 22.4455 30.9008 19.7037 30.2399 17.2369C29.5789 14.7702 26.2613 13.5197 22.8333 14.4382ZM4.27758 26.7491C2.97078 27.0993 1.62189 26.3211 1.26935 25.0054C0.916818 23.6898 1.68762 22.3378 2.99579 21.9872C4.30395 21.6367 5.65148 22.4152 6.00401 23.7309L6.00548 23.7364C6.35655 25.0466 5.58427 26.3931 4.27758 26.7491ZM2.44285 19.9018C-0.00842435 20.5586 -1.45968 23.087 -0.804175 25.5552C-0.143585 28.0205 2.37641 29.4862 4.83052 28.8345C7.28179 28.1777 8.73304 25.6494 8.07754 23.1812L8.07607 23.1757C7.41002 20.7118 4.89003 19.2461 2.44285 19.9018Z" fill="white"/>
</g>
<defs>
<clipPath id="clip0_3002_2771">
<rect width="40" height="40" fill="white"/>
</clipPath>
</defs>
</svg>
