<svg width="32" height="32" viewBox="0 0 32 32" fill="none" xmlns="http://www.w3.org/2000/svg">
<path d="M18.8821 8.8172C19.739 8.81018 19.8973 8.82442 19.9319 8.92267C19.9525 8.9886 19.9739 10.0519 19.9739 11.2899V13.536L20.3371 13.3319C20.9756 12.9586 21.6215 12.7968 22.5139 12.7967C22.9462 12.7967 23.4405 12.8392 23.6125 12.8885C25.4323 13.3956 26.6964 14.6704 27.1565 16.4735C27.2868 16.988 27.2801 18.2975 27.1428 18.8748C26.717 20.6494 25.1719 22.1501 23.428 22.4813C22.8374 22.5939 21.5397 22.5227 21.052 22.3397C20.283 22.058 19.6852 21.6848 19.1496 21.1356C18.3188 20.2834 17.913 19.4095 17.7756 18.1912C17.6728 17.2393 17.6875 8.91661 17.7971 8.85919C17.8418 8.83815 18.335 8.81721 18.8821 8.8172ZM14.9123 13.1912C14.9879 13.0926 17.0621 13.0711 17.2131 13.1697C17.2884 13.2125 16.9451 14.1991 15.6477 17.6561C14.7371 20.0858 13.9557 22.117 13.9172 22.1776C13.8619 22.2407 13.6414 22.2629 13.1135 22.2488L12.385 22.2274L11.9602 21.1356C11.7267 20.537 11.2936 19.4029 10.9914 18.6141C10.6893 17.8253 10.4213 17.1778 10.3938 17.1707C10.3657 17.1658 10.2357 17.4391 10.1057 17.7899C9.8583 18.4665 8.94499 20.868 8.84887 21.1004C8.8212 21.1784 8.72508 21.4319 8.63598 21.6639C8.55372 21.8958 8.45072 22.1278 8.41625 22.1776C8.3677 22.2407 8.14727 22.2629 7.61938 22.2488L6.89184 22.2274L6.59008 21.4529C6.4323 21.0238 6.26722 20.615 6.23949 20.5369C6.14335 20.2974 5.34739 18.1784 5.0725 17.4383C4.46154 15.7908 4.00139 14.579 3.76098 13.952C3.58273 13.4809 3.52778 13.255 3.57543 13.1912C3.63043 13.1279 3.93949 13.1063 4.68774 13.1063C5.42229 13.1063 5.76545 13.1349 5.84106 13.1912C5.89627 13.2413 6.34295 14.3536 6.83031 15.6561C7.31664 16.9628 7.73459 18.0317 7.75707 18.0369C7.77766 18.0369 7.86028 17.867 7.93578 17.6629C8.86849 15.0955 9.57561 13.2728 9.65942 13.1912C9.72807 13.1419 9.98897 13.1063 10.3528 13.1063C10.9845 13.1063 11.2522 13.1561 11.2522 13.2547C11.2539 13.3222 11.5295 14.0841 12.2141 15.8885C12.3583 16.2759 12.5914 16.9028 12.7356 17.283C12.8794 17.6552 13.024 17.9575 13.0588 17.9451C13.1209 17.9224 13.3004 17.4537 14.3215 14.6912C14.609 13.919 14.8699 13.2444 14.9123 13.1912ZM23.0237 15.1844C22.4744 15.0647 22.4604 15.0649 21.9661 15.1776C21.1698 15.3607 20.6063 15.8038 20.2424 16.536C20.0228 16.9723 20.009 17.0509 20.009 17.6776C20.009 18.2616 20.0367 18.4098 20.1946 18.7547C20.4486 19.3179 20.874 19.7547 21.4094 20.0223C21.8213 20.2335 21.9248 20.2547 22.5149 20.2547C23.1326 20.2547 23.1952 20.2407 23.6135 20.0086C24.1765 19.6917 24.5136 19.3391 24.7952 18.7547C25.001 18.3394 25.0217 18.2193 25.0217 17.6844C25.0217 17.1633 24.9941 17.029 24.8088 16.6277C24.4449 15.8391 23.8544 15.3675 23.0237 15.1844Z" fill="white"/>
</svg>
