<svg width="40" height="40" viewBox="0 0 40 40" fill="none" xmlns="http://www.w3.org/2000/svg">
<rect width="40" height="40" fill="#DA31D2"/>
<path d="M23.6016 11.0209C24.6746 11.0121 24.8722 11.0305 24.9151 11.1537C24.9408 11.2392 24.9668 12.5663 24.9668 14.1118V16.9194L25.4209 16.6645C26.2192 16.1979 27.0268 15.9956 28.1426 15.9955C28.6832 15.9956 29.3009 16.0482 29.5157 16.1098C31.7904 16.7437 33.3702 18.3375 33.9454 20.5912C34.1083 21.2343 34.0994 22.8715 33.9278 23.5932C33.3955 25.8116 31.4643 27.6872 29.2842 28.101C28.5461 28.2418 26.9241 28.1531 26.3145 27.9243C25.3533 27.5721 24.606 27.1059 23.9366 26.4194C22.898 25.3542 22.3915 24.2616 22.2198 22.7387C22.0911 21.5491 22.1081 11.1395 22.2452 11.0737C22.2967 11.0473 22.915 11.0209 23.6016 11.0209ZM12.9405 16.3823C13.7302 16.3823 14.0655 16.4446 14.0655 16.5678C14.0667 16.6499 14.4099 17.6015 15.2666 19.8598C15.4469 20.3439 15.7387 21.1276 15.919 21.603C16.0985 22.0677 16.2785 22.4455 16.3223 22.4311C16.3996 22.4047 16.6235 21.8234 17.9024 18.3637C18.2626 17.3962 18.5887 16.5518 18.6407 16.4887C18.7351 16.3655 21.3268 16.3391 21.5157 16.4623C21.6098 16.5158 21.1805 17.7484 19.5586 22.0698C18.417 25.1158 17.4385 27.6605 17.3956 27.7221C17.3265 27.8011 17.0517 27.8276 16.3916 27.81L15.4815 27.7836L14.9493 26.4194C14.6574 25.6711 14.117 24.253 13.7393 23.267C13.3616 22.2811 13.0266 21.4711 12.9922 21.4623C12.9578 21.4538 12.7949 21.7977 12.6319 22.2377C12.3226 23.0837 11.1807 26.085 11.0606 26.3754C11.026 26.473 10.9063 26.7896 10.795 27.0795C10.6921 27.3697 10.5636 27.6601 10.5206 27.7221C10.4602 27.8012 10.1848 27.8276 9.52446 27.81L8.6143 27.7836L8.23638 26.8149C8.03913 26.2784 7.8334 25.7676 7.79888 25.6703C7.67795 25.369 6.68321 22.7216 6.33989 21.7973C5.576 19.7374 5.00069 18.2225 4.70024 17.4389C4.47742 16.85 4.4091 16.5683 4.4688 16.4887C4.53747 16.4095 4.92385 16.3823 5.85942 16.3823C6.77738 16.3823 7.20623 16.4183 7.30083 16.4887C7.36984 16.5513 7.92794 17.9417 8.53716 19.5698C9.14612 21.206 9.66987 22.5434 9.69634 22.5453C9.72253 22.5439 9.82493 22.3329 9.91899 22.0785C11.0843 18.8709 11.9677 16.5931 12.0733 16.4887C12.1591 16.4271 12.4857 16.3823 12.9405 16.3823ZM28.7793 18.9799C28.0927 18.8303 28.075 18.8303 27.4571 18.9711C26.4614 19.2 25.7577 19.7548 25.3028 20.6703C25.0283 21.2159 25.0108 21.3129 25.0108 22.0961C25.0108 22.8266 25.0448 23.0124 25.2422 23.4438C25.5599 24.1478 26.0924 24.6933 26.7618 25.0278C27.2767 25.2918 27.4056 25.3188 28.1436 25.3188C28.9159 25.3188 28.9934 25.3005 29.5166 25.0102C30.2203 24.6141 30.6413 24.1741 30.9932 23.4438C31.2507 22.9244 31.2764 22.7738 31.2764 22.1049C31.2764 21.4537 31.2424 21.2862 31.0108 20.7846C30.5559 19.7987 29.8177 19.2089 28.7793 18.9799Z" fill="white"/>
</svg>
