<svg width="126" height="29" viewBox="0 0 126 29" fill="none" xmlns="http://www.w3.org/2000/svg">
<path d="M9.79681 16.3163L4.01154 9.32898H2.34794V16.3163H0V0.34747H2.34794V7.11115H3.99036L9.12991 0.34747H12.0349L6.11843 8.197L12.7692 16.3162H9.79681V16.3163ZM27.6483 8.04444C28.0029 8.48813 28.2832 8.97419 28.4818 9.50657C28.6807 10.0387 28.78 10.571 28.78 11.1034C28.78 11.7244 28.6769 12.3242 28.4713 12.8991C28.2619 13.4774 27.9606 13.9885 27.5633 14.432C26.985 15.1701 26.2226 15.7096 25.2789 16.0503C24.7469 16.2276 24.1935 16.3164 23.6154 16.3164H16.6562V0.347569H18.9831V6.0928H23.6154C24.4135 6.0928 25.1725 6.2701 25.889 6.62499C26.6056 6.98007 27.1907 7.45184 27.6483 8.04454V8.04444ZM26.4104 11.1034C26.4104 10.4967 26.2012 9.92877 25.7863 9.39649C25.506 9.05599 25.1727 8.78615 24.7788 8.58747C24.3887 8.38879 23.9986 8.28944 23.6155 8.28944H18.9832V14.1196H23.6155C23.9702 14.1196 24.3284 14.0309 24.69 13.8536C25.0519 13.676 25.3677 13.449 25.6336 13.165C25.8855 12.8991 26.077 12.5902 26.2082 12.2353C26.3429 11.8805 26.4104 11.5042 26.4104 11.1034ZM52.239 2.58679C53.4096 4.05236 54.0056 5.96508 54.0375 8.33192C54.0056 10.6989 53.4096 12.6046 52.239 14.0522C51.5759 14.911 50.7421 15.5568 49.735 15.9934C48.731 16.4299 47.6529 16.6498 46.5 16.6498C45.3331 16.6498 44.2442 16.4262 43.2403 15.9829C42.2366 15.5393 41.4066 14.897 40.7574 14.0522C39.782 12.8281 39.1969 11.3056 39.0054 9.48518H35.5932V16.3163H33.2663V0.34747H35.5932V7.17856H39.0054C39.1685 5.37573 39.7538 3.84274 40.7574 2.58659C41.4243 1.74564 42.2543 1.10692 43.2512 0.670329C44.2478 0.233839 45.3331 0.0136719 46.5 0.0136719C47.6529 0.027962 48.7311 0.255126 49.735 0.691715C50.7421 1.12801 51.5759 1.75973 52.239 2.58659V2.58679ZM51.5759 8.17581C51.5759 6.41576 51.175 5.02814 50.3769 4.00614C49.9654 3.43119 49.4228 2.99135 48.7488 2.68613C48.0785 2.38465 47.3548 2.232 46.5886 2.232C45.7765 2.232 45.0174 2.38081 44.3151 2.67558C43.6127 2.97361 43.0417 3.41719 42.5983 4.00614C41.8286 4.99611 41.4314 6.44059 41.3996 8.33192C41.3996 10.1808 41.8003 11.6215 42.5983 12.6576C43.0276 13.2325 43.5809 13.676 44.2619 13.9884C44.9395 14.2972 45.6559 14.4533 46.4114 14.4533C47.2236 14.4533 47.9793 14.3007 48.6815 13.9989C49.3838 13.6939 49.9514 13.2467 50.3769 12.6576C51.175 11.6071 51.5759 10.1135 51.5759 8.17571V8.17581ZM75.0385 16.3164H72.687V5.38293L67.5224 16.3164H66.4795L61.315 5.40421V16.3164H58.967V0.347569H61.2939L67.0115 12.3666L72.6868 0.347569H75.0383V16.3164H75.0385ZM82.8025 2.54431V8.48221H89.2757V10.6753H82.8025V14.1198H90.6058V16.3165H80.4756V0.347667H90.6058V2.54431H82.8025ZM126 0.347667V16.3165H123.695V10.5926H98.3699V16.3165H96.0431V0.347667H98.3699V8.39943H123.695V0.347667H126Z" fill="white"/>
<path d="M3.15738 27.91L1.07502 25.6019H0.513029V27.91H0V22.95H0.513029V25.1203H1.07502L2.8519 22.95H3.49831L1.54027 25.354L3.83147 27.91H3.15738ZM11.646 22.95L9.70234 27.1044C9.50247 27.5077 9.2826 27.7723 9.04273 27.8968C8.96383 27.9332 8.87507 27.9619 8.77509 27.9828C8.67618 28.0026 8.58398 28.0136 8.50074 28.0136C8.3386 28.0136 8.16089 27.9783 7.96663 27.91L8.13981 27.4691C8.27417 27.5199 8.39416 27.5452 8.50074 27.5452C8.63067 27.5452 8.74179 27.522 8.83399 27.4757C8.92728 27.425 9.0117 27.3456 9.08726 27.2355C9.1639 27.1253 9.24832 26.9732 9.34052 26.7803L7.55024 22.95H8.07775L9.59034 26.2357L11.1107 22.95H11.6461H11.646ZM19.3073 27.91H18.6886L17.2449 25.8368L15.8089 27.91H15.1903L16.9474 25.3959L15.2326 22.95H15.85L17.2449 24.9615L18.6409 22.95H19.2651L17.5503 25.3959L19.3074 27.91H19.3073ZM25.3158 28.0136C24.9504 28.0136 24.614 27.9464 24.3085 27.813C24.0031 27.6807 23.7532 27.4822 23.5588 27.2211C23.2035 26.7659 23.0202 26.1695 23.0114 25.4299C23.0114 24.6991 23.1935 24.1028 23.5588 23.6388C23.7531 23.3864 24.0009 23.1924 24.3018 23.0568C24.6027 22.9212 24.9248 22.854 25.2669 22.854C25.6367 22.854 25.981 22.919 26.2975 23.0502C26.6151 23.1803 26.875 23.3775 27.0783 23.6388C27.2683 23.8779 27.4036 24.1469 27.4847 24.4479C27.5658 24.7488 27.6102 25.0761 27.6202 25.4299C27.6202 26.1596 27.4392 26.7571 27.0783 27.2211C26.875 27.4823 26.6219 27.6807 26.3187 27.813C26.0155 27.9463 25.6811 28.0136 25.3158 28.0136ZM25.2881 27.5242C25.5658 27.5242 25.8256 27.4724 26.0688 27.3688C26.3121 27.2663 26.5098 27.1131 26.662 26.9114C26.9307 26.5619 27.0696 26.0681 27.0784 25.4299C27.0784 24.8005 26.9397 24.309 26.662 23.9551C26.5142 23.7578 26.3232 23.6056 26.0899 23.4976C25.8557 23.3896 25.6068 23.3356 25.3436 23.3356C25.0659 23.3356 24.8038 23.3885 24.5596 23.4944C24.3142 23.6002 24.1176 23.7535 23.9688 23.9551C23.7011 24.2913 23.5623 24.7818 23.5523 25.4299C23.5523 26.0637 23.6911 26.5575 23.9688 26.9114C24.112 27.1087 24.302 27.2597 24.5385 27.3654C24.774 27.4713 25.0238 27.5242 25.2882 27.5242H25.2881ZM35.7679 22.9499V27.9099H35.2537V26.0294H32.4917V27.9099H31.9852V22.9499H32.4917V25.5467H35.2537V22.9499H35.7679ZM44.1021 22.9499V27.9099H43.5879V26.0294H40.8258V27.9099H40.3194V22.9499H40.8258V25.5467H43.5879V22.9499H44.1021ZM51.9155 25.3815C52.031 25.5192 52.122 25.6747 52.1898 25.8466C52.2565 26.0185 52.2909 26.1949 52.2909 26.3735C52.2909 26.562 52.2531 26.7483 52.1797 26.9324C52.1054 27.1154 52.001 27.2762 51.8666 27.414C51.6956 27.6025 51.4925 27.7359 51.2558 27.8141C51.0848 27.8781 50.9116 27.91 50.736 27.91H48.6537V22.95H49.1601V24.838H50.736C50.9626 24.838 51.1815 24.8854 51.3913 24.9824C51.6022 25.0783 51.7766 25.2118 51.9154 25.3815H51.9155ZM51.7622 26.3459C51.7622 26.1166 51.6822 25.9029 51.52 25.7055C51.4224 25.5865 51.3035 25.4916 51.1625 25.4233C51.0214 25.3539 50.877 25.3198 50.7281 25.3198H49.16V27.4206H50.7281C50.8582 27.4206 50.9892 27.3919 51.1202 27.3347C51.2524 27.2773 51.3646 27.2025 51.4579 27.111C51.661 26.8993 51.7621 26.6447 51.7621 26.346L51.7622 26.3459ZM53.5814 22.9499V27.9099H53.075V22.9499H53.5814ZM58.716 23.4326V25.1885H60.8674V25.6713H58.716V27.4271H61.2838V27.9099H58.2096V22.9499H61.2838V23.4326H58.716ZM74.8389 26.4351C74.7612 26.7206 74.6291 26.9819 74.4436 27.221C74.236 27.4822 73.9782 27.6806 73.6728 27.8129C73.3674 27.9462 73.0376 28.0135 72.681 28.0135C72.32 28.0135 71.9892 27.9463 71.6882 27.8129C71.3871 27.6806 71.1328 27.4821 70.9239 27.221C70.5587 26.757 70.3765 26.1738 70.3765 25.4707C70.3765 24.7178 70.5587 24.1072 70.9239 23.6387C71.1283 23.3774 71.3827 23.1791 71.6882 23.0468C71.9935 22.9135 72.3244 22.8462 72.681 22.8462C73.042 22.8462 73.3763 22.9145 73.6838 23.0501C73.9915 23.1857 74.2446 23.3818 74.4435 23.6387C74.6478 23.9054 74.7932 24.2108 74.881 24.5547L74.3535 24.6373C74.2846 24.3662 74.178 24.1369 74.0347 23.9484C73.8814 23.7467 73.6826 23.5934 73.4372 23.4909C73.1918 23.3873 72.9307 23.3355 72.6531 23.3355C72.3933 23.3355 72.1467 23.3895 71.9102 23.4975C71.6747 23.6055 71.4848 23.7554 71.3403 23.9484C71.0626 24.3022 70.9238 24.796 70.9238 25.4299C70.9238 26.0636 71.0626 26.5597 71.3403 26.9179C71.4892 27.1152 71.6846 27.2662 71.9278 27.3687C72.1699 27.4723 72.4309 27.5241 72.7086 27.5241C72.9718 27.5241 73.2229 27.4712 73.4615 27.3653C73.6992 27.2595 73.8903 27.1108 74.0346 26.9179C74.1635 26.7438 74.2635 26.5343 74.3323 26.2907L74.8387 26.4351H74.8389ZM83.0211 22.9498V27.9098H82.508V23.8381L79.7593 27.9098H79.2462V22.9498H79.7593V27.0138L82.508 22.9498H83.0211ZM91.8483 26.4351C91.7706 26.7206 91.6385 26.9819 91.453 27.221C91.2453 27.4822 90.9876 27.6806 90.6822 27.8129C90.3769 27.9462 90.047 28.0135 89.6904 28.0135C89.3294 28.0135 88.9986 27.9463 88.6975 27.8129C88.3966 27.6806 88.1422 27.4821 87.9334 27.221C87.568 26.757 87.3859 26.1738 87.3859 25.4707C87.3859 24.7178 87.568 24.1072 87.9334 23.6387C88.1378 23.3774 88.3921 23.1791 88.6975 23.0468C89.003 22.9135 89.3338 22.8462 89.6904 22.8462C90.0514 22.8462 90.3857 22.9145 90.6932 23.0501C91.0008 23.1857 91.2541 23.3818 91.4529 23.6387C91.6573 23.9054 91.8027 24.2108 91.8904 24.5547L91.3628 24.6373C91.294 24.3662 91.1874 24.1369 91.0442 23.9484C90.8908 23.7467 90.692 23.5934 90.4466 23.4909C90.2012 23.3873 89.9402 23.3355 89.6626 23.3355C89.4026 23.3355 89.1562 23.3895 88.9196 23.4975C88.6841 23.6055 88.4943 23.7554 88.3498 23.9484C88.0721 24.3022 87.9333 24.796 87.9333 25.4299C87.9333 26.0636 88.0721 26.5597 88.3498 26.9179C88.4986 27.1152 88.6941 27.2662 88.9373 27.3687C89.1793 27.4723 89.4404 27.5241 89.7181 27.5241C89.9813 27.5241 90.2323 27.4712 90.471 27.3653C90.7087 27.2595 90.8997 27.1108 91.0441 26.9179C91.1729 26.7438 91.2729 26.5343 91.3418 26.2907L91.8481 26.4351H91.8483ZM99.8439 23.4326H98.0947V27.9099H97.5883V23.4326H95.8391V22.9499H99.8439V23.4326ZM104.485 23.4326V25.1885H106.637V25.6713H104.485V27.4271H107.053V27.9099H103.979V22.9499H107.053V23.4326H104.485ZM116.52 27.9033H116.006V24.0797L114.229 27.91H113.896L112.119 24.0797V27.91H111.606V22.95H112.112L114.062 27.1176L116.006 22.95H116.52V27.9034V27.9033ZM124.334 25.3814C124.449 25.5191 124.54 25.6746 124.608 25.8465C124.675 26.0184 124.709 26.1948 124.709 26.3734C124.709 26.5619 124.671 26.7482 124.598 26.9323C124.523 27.1153 124.419 27.2761 124.285 27.4139C124.114 27.6024 123.911 27.7358 123.674 27.814C123.503 27.878 123.33 27.9099 123.154 27.9099H121.072V22.9499H121.578V24.8379H123.154C123.381 24.8379 123.6 24.8853 123.809 24.9823C124.02 25.0782 124.195 25.2117 124.334 25.3814ZM124.18 26.3458C124.18 26.1165 124.1 25.9028 123.938 25.7054C123.841 25.5864 123.722 25.4915 123.581 25.4232C123.439 25.3538 123.295 25.3197 123.146 25.3197H121.578V27.4205H123.146C123.276 27.4205 123.407 27.3918 123.538 27.3346C123.67 27.2772 123.783 27.2024 123.876 27.1109C124.079 26.8992 124.18 26.6446 124.18 26.3459L124.18 26.3458ZM126 22.9498V27.9098H125.493V22.9498H126Z" fill="white"/>
<path d="M111.633 3.3623H110.431C109.926 3.3623 109.517 3.69756 109.517 4.11111V4.59894C109.517 5.0125 109.926 5.34775 110.431 5.34775H111.633C112.137 5.34775 112.547 5.0125 112.547 4.59894V4.11111C112.547 3.69756 112.137 3.3623 111.633 3.3623Z" fill="white"/>
</svg>
