<svg width="429" height="204" viewBox="0 0 429 204" fill="none" xmlns="http://www.w3.org/2000/svg">
<path d="M93.6698 99.1429V49.619C93.6698 45.4112 90.2586 42 86.0507 42H9.6188C5.41092 42 1.99976 45.4112 1.99976 49.619V167.714C1.99976 171.922 5.41091 175.333 9.6188 175.333H84.6825" stroke="#D8B08C" stroke-width="4"/>
<circle cx="47.8348" cy="162.952" r="4.62582" fill="#D8B08C"/>
<path d="M41.5435 51.5239H54.1256" stroke="#D8B08C" stroke-width="2"/>
<path d="M122.429 102.953L162.679 102.953M162.679 102.953L150.135 116.286M162.679 102.953L150.135 89.6192" stroke="#D8B08C" stroke-width="4"/>
<path d="M244.656 202H302.174H360.591M178.15 148.919V166.893C178.15 171.101 181.561 174.512 185.769 174.512H279.706M178.15 148.919V9.61905C178.15 5.41116 181.561 2 185.769 2H418.579C422.787 2 426.198 5.41116 426.198 9.61905V148.919M178.15 148.919H426.198M426.198 148.919V166.893C426.198 171.101 422.787 174.512 418.579 174.512H325.541M325.541 174.512C325.541 174.512 325.541 202 346.212 202C346.212 202 238.365 202 259.035 202C279.706 202 279.706 174.512 279.706 174.512M325.541 174.512H279.706" stroke="#D8B08C" stroke-width="4"/>
<path d="M194.124 13.3938H412.086C414.19 13.3938 415.895 15.0994 415.895 17.2033V134.381C415.895 136.485 414.19 138.191 412.086 138.191H194.124C192.021 138.191 190.315 136.485 190.315 134.381V17.2033C190.315 15.0994 192.021 13.3938 194.124 13.3938Z" stroke="#D8B08C" stroke-width="2"/>
<circle cx="301.276" cy="161.048" r="4.62582" fill="#D8B08C"/>
<path d="M98.633 99.1431H72.5297C68.3218 99.1431 64.9106 102.554 64.9106 106.762V167.714C64.9106 171.922 68.3218 175.334 72.5297 175.334H98.633C102.841 175.334 106.252 171.922 106.252 167.714V106.762C106.252 102.554 102.841 99.1431 98.633 99.1431Z" stroke="#D8B08C" stroke-width="4"/>
<path d="M82.8848 104.857H90.0746" stroke="#D8B08C" stroke-width="1.90476"/>
</svg>
