<svg width="8" height="16" viewBox="0 0 8 16" fill="none" xmlns="http://www.w3.org/2000/svg">
<path opacity="0.5" d="M3.74 0H4.24V4.92H7.5V0H0.5V4.92H3.74V0ZM5.35 3.66H6.35C6.49 3.66 6.6 3.77 6.6 3.91C6.6 4.05 6.49 4.16 6.35 4.16H5.35C5.21 4.16 5.1 4.05 5.1 3.91C5.1 3.77 5.21 3.66 5.35 3.66ZM2.63 4.16H1.63C1.49 4.16 1.38 4.05 1.38 3.91C1.38 3.77 1.49 3.66 1.63 3.66H2.63C2.77 3.66 2.88 3.77 2.88 3.91C2.88 4.05 2.77 4.16 2.63 4.16ZM0.5 16H7.5V10.96H0.5V16ZM3.5 11.71H4.5C4.64 11.71 4.75 11.82 4.75 11.96C4.75 12.1 4.64 12.21 4.5 12.21H3.5C3.36 12.21 3.25 12.1 3.25 11.96C3.25 11.82 3.36 11.71 3.5 11.71ZM7.5 5.42V10.46H0.5V5.42H7.5Z" fill="white"/>
</svg>
