<svg width="32" height="32" viewBox="0 0 32 32" fill="none" xmlns="http://www.w3.org/2000/svg">
<rect width="32" height="32" rx="6.4" fill="#0D8C8D"/>
<path d="M9 10C8.46957 10 7.96086 10.1963 7.58579 10.5457C7.21071 10.8951 7 11.369 7 11.8632V12.9448L15.441 16.8771C15.6146 16.9579 15.8059 17 16 17C16.194 17 16.3854 16.9579 16.559 16.8771L25 12.9457V11.8632C25 11.369 24.7893 10.8951 24.4142 10.5457C24.0391 10.1963 23.5304 10 23 10H9Z" fill="white"/>
<path d="M25 15L17.23 18.7977C16.8481 18.9843 16.427 19.0815 16 19.0815C15.573 19.0815 15.1519 18.9843 14.77 18.7977L7 15V20.045C7 20.5635 7.21071 21.0607 7.58579 21.4274C7.96086 21.794 8.46957 22 9 22H23C23.5304 22 24.0391 21.794 24.4142 21.4274C24.7893 21.0607 25 20.5635 25 20.045V15Z" fill="white"/>
</svg>
