<svg width="32" height="32" viewBox="0 0 32 32" fill="none" xmlns="http://www.w3.org/2000/svg">
<rect width="32" height="32" rx="6.4" fill="url(#paint0_linear_2798_5001)"/>
<path fill-rule="evenodd" clip-rule="evenodd" d="M22.4536 9.97055C20.8631 8.37825 18.7481 7.50097 16.4947 7.5C11.8515 7.5 8.07246 11.2788 8.07059 15.9234C8.07003 17.4081 8.45785 18.8572 9.19508 20.1348L8 24.5L12.4657 23.3286C13.6961 23.9997 15.0814 24.3535 16.4912 24.3539H16.4947C21.1374 24.3539 24.9168 20.5747 24.9187 15.93C24.9195 13.6792 24.044 11.5628 22.4536 9.97055ZM16.4947 22.9313H16.4919C15.2355 22.9308 14.0033 22.5932 12.9283 21.9553L12.6726 21.8036L10.0226 22.4987L10.7299 19.915L10.5634 19.65C9.8626 18.5353 9.49237 17.2469 9.49293 15.9238C9.49447 12.0634 12.6354 8.92275 16.4976 8.92275C18.3676 8.92339 20.1257 9.6526 21.4476 10.9761C22.7695 12.2996 23.497 14.0587 23.4963 15.9296C23.4947 19.7903 20.3538 22.9313 16.4947 22.9313ZM20.3353 17.6873C20.1248 17.582 19.09 17.0728 18.897 17.0025C18.7041 16.9324 18.5638 16.8972 18.4235 17.1079C18.2832 17.3187 17.8797 17.7927 17.7569 17.9333C17.6341 18.0737 17.5113 18.0913 17.3009 17.9859C17.0904 17.8806 16.4122 17.6583 15.6082 16.9411C14.9825 16.383 14.5601 15.6938 14.4373 15.483C14.3145 15.2723 14.4242 15.1584 14.5296 15.0534C14.6243 14.9591 14.7401 14.8075 14.8454 14.6846C14.9507 14.5618 14.9857 14.4739 15.0559 14.3335C15.126 14.193 15.091 14.07 15.0383 13.9648C14.9857 13.8593 14.5647 12.8233 14.3893 12.4018C14.2185 11.9914 14.0449 12.047 13.9157 12.0405C13.7931 12.0344 13.6526 12.033 13.5123 12.033C13.372 12.033 13.144 12.0857 12.951 12.2964C12.7581 12.5072 12.2143 13.0164 12.2143 14.0525C12.2143 15.0885 12.9685 16.0893 13.0738 16.2299C13.179 16.3703 14.5581 18.4963 16.6695 19.4081C17.1716 19.625 17.5637 19.7545 17.8694 19.8516C18.3737 20.0118 18.8325 19.9891 19.1951 19.935C19.5996 19.8745 20.4405 19.4257 20.6159 18.9341C20.7913 18.4424 20.7913 18.0209 20.7387 17.9331C20.6861 17.8454 20.5458 17.7927 20.3353 17.6873Z" fill="white"/>
<defs>
<linearGradient id="paint0_linear_2798_5001" x1="16" y1="0" x2="16" y2="32" gradientUnits="userSpaceOnUse">
<stop stop-color="#61FD7D"/>
<stop offset="1" stop-color="#27D045"/>
</linearGradient>
</defs>
</svg>
